<svg xmlns="http://www.w3.org/2000/svg" height="24" viewBox="0 -960 960 960" width="24" style = "fill: #444444"><path d="M240-190.769q-20.308 0-34.769-14.462-14.462-14.461-14.462-34.769t14.462-34.769q14.461-14.462 34.769-14.462t34.769 14.462q14.462 14.461 14.462 34.769t-14.462 34.769Q260.308-190.769 240-190.769Zm240 0q-20.308 0-34.769-14.462-14.462-14.461-14.462-34.769t14.462-34.769q14.461-14.462 34.769-14.462t34.769 14.462q14.462 14.461 14.462 34.769t-14.462 34.769Q500.308-190.769 480-190.769Zm240 0q-20.308 0-34.769-14.462-14.462-14.461-14.462-34.769t14.462-34.769q14.461-14.462 34.769-14.462t34.769 14.462q14.462 14.461 14.462 34.769t-14.462 34.769Q740.308-190.769 720-190.769Zm-480-240q-20.308 0-34.769-14.462-14.462-14.461-14.462-34.769t14.462-34.769q14.461-14.462 34.769-14.462t34.769 14.462q14.462 14.461 14.462 34.769t-14.462 34.769Q260.308-430.769 240-430.769Zm240 0q-20.308 0-34.769-14.462-14.462-14.461-14.462-34.769t14.462-34.769q14.461-14.462 34.769-14.462t34.769 14.462q14.462 14.461 14.462 34.769t-14.462 34.769Q500.308-430.769 480-430.769Zm240 0q-20.308 0-34.769-14.462-14.462-14.461-14.462-34.769t14.462-34.769q14.461-14.462 34.769-14.462t34.769 14.462q14.462 14.461 14.462 34.769t-14.462 34.769Q740.308-430.769 720-430.769Zm-480-240q-20.308 0-34.769-14.462-14.462-14.461-14.462-34.769t14.462-34.769q14.461-14.462 34.769-14.462t34.769 14.462q14.462 14.461 14.462 34.769t-14.462 34.769Q260.308-670.769 240-670.769Zm240 0q-20.308 0-34.769-14.462-14.462-14.461-14.462-34.769t14.462-34.769q14.461-14.462 34.769-14.462t34.769 14.462q14.462 14.461 14.462 34.769t-14.462 34.769Q500.308-670.769 480-670.769Zm240 0q-20.308 0-34.769-14.462-14.462-14.461-14.462-34.769t14.462-34.769q14.461-14.462 34.769-14.462t34.769 14.462q14.462 14.461 14.462 34.769t-14.462 34.769Q740.308-670.769 720-670.769Z"/></svg>