<svg style = "fill: #444444" xmlns="http://www.w3.org/2000/svg" height="24" viewBox="0 -960 960 960" width="24"><path d="M289.231-310.769q-13.077 0-21.923-8.846-8.847-8.846-8.847-21.923v-40h470.001l25.384 25.384V-720h40q13.077 0 21.924 8.846 8.846 8.846 8.846 21.923v501.539L701.539-310.769H289.231Zm-153.847-27.692v-470.77q0-13.077 8.846-21.923Q153.077-840 166.154-840h476.923q13.077 0 21.923 8.846 8.846 8.846 8.846 21.923v316.923q0 13.077-8.846 21.923-8.846 8.847-21.923 8.847H258.461L135.384-338.461Zm498.462-163.078V-800H175.385v353.846l55.384-55.385h403.077Zm-458.461 0V-800v298.461Z"/></svg>