<svg style = "fill: #444444" xmlns="http://www.w3.org/2000/svg" height="24" viewBox="0 -960 960 960" width="24"><path d="m102.307-247.232-48.845-35.461 187.692-300.383 120 140 159.231-258.461 95.537 143.383q-17.23 1.385-32.345 4.731-15.115 3.346-30.115 9.038l-30.847-46.078-152.769 248.539-121-141-146.539 235.692ZM863-54.232 731.846-184.617Q713-171.001 690.231-164.001q-22.77 7-47.231 7-66.922 0-113.461-46.538Q483.001-250.078 483.001-317t46.538-113.461Q576.078-476.999 643-476.999t113.461 46.538Q802.999-383.922 802.999-317q0 24.846-7.193 47.807-7.192 22.962-21.192 42.423L905.768-97 863-54.232ZM643-217q42 0 71-29t29-71q0-42-29-71t-71-29q-42 0-71 29t-29 71q0 42 29 71t71 29Zm81.307-326.924q-14.384-5.692-29.499-9.345-15.115-3.654-31.345-4.654l194.23-307.845 48.844 35.461-182.23 286.383Z"/></svg>