<svg style = "fill: #444444" xmlns="http://www.w3.org/2000/svg" height="24" viewBox="0 -960 960 960" width="24"><path d="m99.615-261.461-32.692-23.924 175.385-280.769 120 140 158.461-256.923 82.077 123.769q-11.461 1.77-21.192 3.962t-19.731 5.577l-39.692-59.154-153.539 250.077-121-141L99.615-261.461ZM863-68.461l-137.308-135.77Q708-191 686.962-184q-21.039 7-43.962 7-58.846 0-99.423-40.577Q503-258.154 503-317q0-58.846 40.577-99.423Q584.154-457 643-457q58.846 0 99.423 40.577Q783-375.846 783-317q0 23.692-7.384 45.115-7.385 21.424-21.385 39.347L891.539-97 863-68.461ZM643-217q42 0 71-29t29-71q0-42-29-71t-71-29q-42 0-71 29t-29 71q0 42 29 71t71 29Zm73.615-333.846q-9.769-3.385-19.5-5.692-9.73-2.308-20.192-3.308l183.462-291.693 32.692 23.924-176.462 276.769Z"/></svg>