<?xml version="1.0" standalone="no"?>
<!DOCTYPE svg PUBLIC "-//W3C//DTD SVG 20010904//EN"
 "http://www.w3.org/TR/2001/REC-SVG-20010904/DTD/svg10.dtd">
<svg version="1.0" xmlns="http://www.w3.org/2000/svg"
 width="90.000000pt" height="90.000000pt" viewBox="0 0 90.000000 90.000000"
 preserveAspectRatio="xMidYMid meet">
<metadata>
Created by potrace 1.14, written by Peter Selinger 2001-2017
</metadata>
<g transform="translate(0.000000,90.000000) scale(0.100000,-0.100000)"
fill="#000000" stroke="none">
<path d="M607 816 c-8 -8 -44 -66 -81 -129 -36 -63 -73 -120 -81 -127 -8 -7
-12 -16 -9 -21 3 -5 0 -9 -5 -9 -14 0 -14 6 0 32 8 16 8 22 -2 29 -8 4 -14 14
-15 21 -3 34 -5 39 -14 33 -5 -3 -11 -1 -11 4 -2 12 -5 26 -9 39 -1 4 -2 10
-1 14 0 5 -5 7 -12 5 -6 -1 -11 4 -10 11 2 6 -2 12 -8 12 -5 0 -7 5 -4 10 3 6
1 10 -5 10 -6 0 -8 5 -5 10 3 6 -1 13 -9 16 -9 3 -14 10 -11 14 3 4 -3 14 -13
21 -15 13 -16 12 -3 -3 16 -22 3 -23 -23 -3 -21 16 -62 3 -50 -16 3 -5 1 -16
-6 -24 -8 -9 -8 -15 0 -20 6 -3 8 -11 5 -16 -3 -5 2 -6 11 -2 13 5 15 3 9 -7
-5 -9 -4 -11 4 -6 6 4 9 12 6 17 -4 5 -4 9 -1 9 3 0 10 -9 16 -20 8 -15 8 -20
-1 -18 -6 2 -14 -3 -16 -11 -4 -10 1 -11 18 -7 22 7 23 6 6 -8 -10 -8 -14 -17
-8 -20 5 -3 12 0 15 6 3 7 4 2 3 -12 -1 -14 3 -25 8 -25 6 0 16 -4 23 -8 7 -5
12 -3 12 4 0 17 13 2 16 -17 2 -10 -3 -13 -12 -10 -19 8 -41 14 -31 9 4 -3 5
-9 2 -14 -4 -5 2 -6 11 -2 10 4 15 2 11 -4 -3 -5 0 -21 8 -36 7 -14 10 -28 7
-32 -4 -3 1 -3 11 0 14 6 15 9 2 22 -17 16 -20 38 -5 28 6 -3 7 1 4 12 -5 17
-5 17 6 0 6 -9 8 -22 4 -29 -4 -6 -3 -8 3 -5 6 4 13 0 17 -8 9 -25 -15 -29
-169 -31 -82 -1 -153 -2 -157 -3 -17 -3 -38 -35 -38 -60 0 -55 18 -60 211 -61
96 -1 182 -6 190 -11 8 -5 10 -9 5 -9 -6 0 -2 -6 9 -13 11 -9 15 -19 10 -27
-6 -9 -13 -3 -26 21 -10 19 -18 27 -19 19 0 -12 -2 -13 -9 -1 -6 9 -11 10 -15
2 -4 -6 -2 -11 3 -11 8 0 7 -7 -1 -19 -7 -11 -16 -17 -20 -14 -5 2 -4 11 3 19
9 11 8 14 -2 14 -11 0 -11 3 1 11 13 9 13 10 0 6 -8 -2 -14 -12 -12 -22 2 -10
-1 -14 -7 -10 -6 3 -11 0 -11 -8 0 -8 -7 -18 -16 -21 -8 -3 -13 -10 -10 -15 3
-5 -1 -14 -9 -21 -8 -7 -12 -16 -9 -21 3 -5 -6 -21 -20 -36 -14 -15 -23 -30
-20 -35 3 -4 -1 -8 -8 -8 -9 0 -9 -3 2 -10 15 -9 13 -11 -12 -14 -14 -1 -20
-36 -7 -36 6 0 8 -4 5 -8 -9 -15 13 -36 41 -38 30 -2 56 13 47 27 -3 5 1 9 8
9 9 0 9 3 -2 10 -14 9 -13 11 10 14 14 1 50 58 44 68 -3 5 -10 6 -15 3 -9 -6
-10 -5 -14 32 -2 23 5 29 18 16 4 -3 2 -12 -4 -20 -9 -9 -8 -13 0 -13 10 0 15
14 12 33 -1 5 4 7 11 4 7 -2 21 0 31 5 17 9 17 10 -3 35 -26 33 -17 44 10 12
11 -13 19 -18 18 -10 -2 8 4 16 12 18 10 2 36 -35 80 -113 36 -64 75 -123 86
-131 45 -29 105 16 89 67 -4 13 -35 71 -69 130 -73 124 -79 137 -65 145 5 4 8
1 7 -6 -3 -15 44 -19 54 -5 10 15 40 16 35 2 -6 -15 74 -17 85 -2 10 14 40 16
35 3 -3 -8 7 -12 29 -13 18 0 32 4 31 10 -1 5 4 10 11 11 6 0 12 4 11 9 0 5 5
13 13 18 10 8 9 9 -4 4 -10 -3 -20 -1 -23 4 -6 9 9 15 29 11 5 -1 4 5 -3 13
-7 9 -18 13 -24 9 -6 -4 -8 0 -5 9 5 11 0 14 -18 12 -13 -1 -26 2 -30 7 -3 5
-18 0 -34 -11 -37 -26 -48 -26 -24 2 11 12 13 18 4 13 -21 -13 -59 -15 -66 -4
-9 15 -24 0 -17 -18 5 -13 -1 -11 -28 7 -19 13 -28 17 -22 9 20 -25 3 -30 -19
-6 -11 12 -17 16 -13 10 3 -7 0 -13 -7 -13 -9 0 -9 -3 2 -10 12 -7 12 -10 1
-10 -8 0 -11 -6 -7 -16 3 -8 2 -13 -2 -10 -5 3 -9 -1 -9 -9 0 -11 5 -12 20 -3
13 7 17 7 13 0 -3 -6 -2 -13 4 -17 5 -3 10 -11 10 -17 0 -6 -8 -4 -18 5 -10
10 -22 14 -25 10 -4 -3 -13 2 -21 13 -12 16 -12 22 5 45 10 15 19 30 19 33 0
3 32 61 70 129 39 67 70 132 70 143 0 45 -71 72 -103 40z m-353 -18 c-5 -8 -2
-9 9 -5 10 4 20 0 26 -11 5 -9 12 -16 15 -14 12 5 29 2 23 -4 -3 -4 -2 -15 3
-25 7 -12 6 -20 -2 -25 -7 -5 -8 -3 -3 7 7 11 6 12 -7 2 -8 -7 -18 -10 -22 -6
-4 4 -4 -1 0 -11 4 -10 10 -14 13 -9 22 29 72 -4 65 -44 -3 -13 -1 -22 4 -19
12 7 38 -11 29 -21 -5 -4 -12 -2 -16 6 -7 10 -9 9 -14 -3 -3 -8 -1 -18 5 -22
7 -5 8 -2 3 5 -6 10 -3 11 13 2 27 -14 35 -28 22 -36 -6 -4 -10 -17 -8 -28 1
-12 -2 -23 -7 -25 -9 -3 -17 20 -16 51 0 10 -5 15 -11 11 -6 -4 -8 -3 -5 3 4
6 0 14 -9 17 -14 5 -14 9 -3 23 8 10 9 14 2 10 -6 -4 -14 -3 -18 2 -3 6 -12 8
-20 4 -13 -5 -20 7 -16 30 0 4 -3 7 -7 7 -8 0 -12 14 -13 53 0 9 -4 15 -9 12
-5 -3 -12 0 -15 6 -4 5 -13 8 -20 5 -22 -8 -26 6 -8 26 13 14 13 18 2 18 -11
0 -11 2 1 10 20 13 23 12 14 -2z m457 -315 c8 2 10 2 5 -1 -4 -2 -2 -9 5 -14
12 -8 12 -10 0 -15 -7 -3 -22 -14 -32 -24 -12 -12 -19 -14 -19 -6 0 8 -4 7
-10 -3 -5 -8 -10 -11 -10 -6 0 5 -6 4 -13 -3 -24 -20 -38 7 -21 40 18 36 31
37 46 4 6 -13 15 -22 21 -18 5 3 3 9 -4 15 -11 8 -11 11 -1 15 10 4 10 8 0 21
-11 15 -11 15 3 4 9 -7 23 -11 30 -9z m92 -31 c-17 -13 -17 -14 3 -8 14 4 28
0 41 -11 10 -10 17 -17 14 -15 -2 1 -13 -5 -23 -14 -14 -14 -20 -14 -33 -4 -8
7 -12 16 -9 21 3 5 1 9 -5 9 -5 0 -12 -6 -15 -12 -3 -7 -3 -1 -1 14 2 15 -1
30 -6 34 -5 3 -8 0 -7 -8 2 -7 -2 -12 -7 -11 -6 1 -12 -8 -12 -19 -2 -20 -1
-20 13 -2 14 18 14 18 4 -4 -6 -12 -15 -20 -21 -17 -5 4 -9 2 -9 -2 0 -5 -11
-9 -24 -9 -17 0 -22 5 -19 17 3 10 12 20 20 24 12 4 13 2 5 -8 -9 -10 -8 -14
3 -14 8 0 12 4 10 7 -3 4 5 19 16 34 16 21 24 24 39 16 25 -13 40 -12 17 1 -9
6 -14 15 -11 21 5 7 12 4 21 -8 12 -16 11 -21 -4 -32z m47 7 c0 -18 -18 -9
-23 12 -4 16 -3 18 9 8 8 -6 14 -15 14 -20z m-240 1 c0 -5 -7 -10 -16 -10 -8
0 -12 5 -9 10 3 6 10 10 16 10 5 0 9 -4 9 -10z m-197 -123 c3 -7 -3 -13 -14
-13 -13 0 -15 3 -7 13 6 7 12 13 13 13 2 0 5 -6 8 -13z m-39 -31 c6 2 19 -8
29 -21 16 -23 16 -24 1 -18 -13 5 -15 3 -9 -7 5 -9 4 -11 -4 -6 -6 4 -9 13 -5
19 3 7 -2 3 -10 -7 -11 -14 -16 -15 -16 -6 0 27 -25 -9 -26 -38 -4 -59 -3 -58
-14 -42 -6 9 -5 17 3 22 7 4 8 8 2 8 -6 0 -16 -5 -23 -12 -9 -9 -12 -9 -12 1
0 7 -5 9 -11 5 -8 -5 -8 -9 1 -14 9 -5 9 -9 1 -14 -6 -4 -11 -2 -11 4 0 6 -6
8 -12 4 -7 -4 0 7 16 24 15 17 25 35 22 40 -9 14 19 33 38 26 9 -3 16 -1 16 5
0 6 -3 10 -7 10 -28 -5 -36 2 -17 15 10 8 23 11 28 6 5 -5 14 -7 20 -4z m-39
-135 c3 9 12 16 20 16 11 0 10 -5 -3 -26 -22 -36 -26 -39 -19 -16 l7 20 -16
-20 c-8 -11 -20 -19 -25 -18 -5 2 -9 -1 -9 -5 0 -4 -8 -8 -18 -9 -14 -1 -18 6
-18 28 0 20 4 28 12 25 7 -3 18 2 25 10 10 12 13 12 25 -3 11 -16 13 -16 19
-2z m-90 -51 c-3 -4 2 -13 10 -20 12 -10 15 -10 15 1 0 8 6 5 15 -7 13 -16 14
-16 9 -1 -3 9 -2 17 4 17 6 0 9 -8 8 -17 -2 -13 -12 -18 -33 -19 -23 0 -30 3
-25 15 4 10 1 12 -9 6 -8 -4 -11 -5 -7 0 4 4 3 16 -3 26 -7 15 -6 17 6 13 8
-3 13 -10 10 -14z"/>
<path d="M261 776 c-9 -10 -8 -16 4 -26 8 -7 15 -9 15 -5 0 4 6 2 14 -4 17
-15 28 -1 15 19 -6 11 -9 11 -9 2 0 -10 -3 -10 -14 0 -8 7 -12 16 -9 21 7 12
-4 8 -16 -7z"/>
<path d="M342 690 c2 -7 -3 -15 -11 -18 -9 -3 -11 0 -6 8 5 8 4 11 -3 7 -19
-12 -6 -41 18 -41 27 0 35 27 13 45 -11 10 -13 10 -11 -1z m15 -25 c0 -8 -4
-12 -9 -9 -5 3 -6 10 -3 15 9 13 12 11 12 -6z"/>
<path d="M398 583 c10 -4 10 -8 0 -21 -12 -15 -11 -16 4 -3 19 14 15 32 -5 30
-8 0 -8 -2 1 -6z"/>
<path d="M627 455 c-7 -16 8 -29 23 -20 10 6 2 35 -10 35 -4 0 -10 -7 -13 -15z"/>
<path d="M690 460 c0 -5 5 -10 10 -10 6 0 10 5 10 10 0 6 -4 10 -10 10 -5 0
-10 -4 -10 -10z"/>
<path d="M810 425 c-15 -18 1 -26 23 -10 15 10 15 14 3 18 -8 3 -20 0 -26 -8z"/>
<path d="M334 299 c-4 -7 -3 -9 4 -5 6 3 15 -1 20 -10 8 -15 10 -14 16 2 4 10
4 15 0 11 -4 -4 -13 -2 -20 4 -8 7 -14 6 -20 -2z"/>
<path d="M309 264 c-1 -5 -1 -13 0 -18 1 -4 -4 -15 -11 -24 -12 -13 -11 -14 8
-2 21 13 25 32 11 46 -4 4 -8 3 -8 -2z"/>
<path d="M290 163 c0 -5 4 -14 9 -21 7 -11 9 -11 14 1 3 8 3 18 0 21 -9 8 -23
7 -23 -1z"/>
<path d="M270 140 c0 -5 5 -10 11 -10 5 0 7 5 4 10 -3 6 -8 10 -11 10 -2 0 -4
-4 -4 -10z"/>
<path d="M545 451 c-3 -5 -2 -12 3 -15 5 -3 9 1 9 9 0 17 -3 19 -12 6z"/>
<path d="M386 213 c-6 -14 -5 -15 5 -6 7 7 10 15 7 18 -3 3 -9 -2 -12 -12z"/>
</g>
</svg>
